<?xml version="1.0" standalone="no"?><svg xmlns="http://www.w3.org/2000/svg" viewBox="0 0 1440 320"><path fill="#006404" fill-opacity="1" d="M0,160L34.3,165.3C68.6,171,137,181,206,208C274.3,235,343,277,411,266.7C480,256,549,192,617,192C685.7,192,754,256,823,272C891.4,288,960,256,1029,245.3C1097.1,235,1166,245,1234,218.7C1302.9,192,1371,128,1406,96L1440,64L1440,0L1405.7,0C1371.4,0,1303,0,1234,0C1165.7,0,1097,0,1029,0C960,0,891,0,823,0C754.3,0,686,0,617,0C548.6,0,480,0,411,0C342.9,0,274,0,206,0C137.1,0,69,0,34,0L0,0Z"></path></svg>