<?xml version="1.0" standalone="no"?>
<svg xmlns:xlink="http://www.w3.org/1999/xlink" id="wave" style="transform:rotate(180deg); transition: 0.3s" viewBox="0 0 1440 490" version="1.1" xmlns="http://www.w3.org/2000/svg"><defs><linearGradient id="sw-gradient-0" x1="0" x2="0" y1="1" y2="0"><stop stop-color="rgba(0, 100, 4, 1)" offset="0%"/><stop stop-color="rgba(0, 100, 4, 1)" offset="100%"/></linearGradient></defs><path style="transform:translate(0, 0px); opacity:1" fill="url(#sw-gradient-0)" d="M0,392L48,343C96,294,192,196,288,163.3C384,131,480,163,576,212.3C672,261,768,327,864,318.5C960,310,1056,229,1152,212.3C1248,196,1344,245,1440,253.2C1536,261,1632,229,1728,245C1824,261,1920,327,2016,343C2112,359,2208,327,2304,294C2400,261,2496,229,2592,228.7C2688,229,2784,261,2880,228.7C2976,196,3072,98,3168,89.8C3264,82,3360,163,3456,204.2C3552,245,3648,245,3744,277.7C3840,310,3936,376,4032,334.8C4128,294,4224,147,4320,81.7C4416,16,4512,33,4608,73.5C4704,114,4800,180,4896,179.7C4992,180,5088,114,5184,98C5280,82,5376,114,5472,130.7C5568,147,5664,147,5760,171.5C5856,196,5952,245,6048,285.8C6144,327,6240,359,6336,310.3C6432,261,6528,131,6624,89.8C6720,49,6816,98,6864,122.5L6912,147L6912,490L6864,490C6816,490,6720,490,6624,490C6528,490,6432,490,6336,490C6240,490,6144,490,6048,490C5952,490,5856,490,5760,490C5664,490,5568,490,5472,490C5376,490,5280,490,5184,490C5088,490,4992,490,4896,490C4800,490,4704,490,4608,490C4512,490,4416,490,4320,490C4224,490,4128,490,4032,490C3936,490,3840,490,3744,490C3648,490,3552,490,3456,490C3360,490,3264,490,3168,490C3072,490,2976,490,2880,490C2784,490,2688,490,2592,490C2496,490,2400,490,2304,490C2208,490,2112,490,2016,490C1920,490,1824,490,1728,490C1632,490,1536,490,1440,490C1344,490,1248,490,1152,490C1056,490,960,490,864,490C768,490,672,490,576,490C480,490,384,490,288,490C192,490,96,490,48,490L0,490Z"/></svg>